Coordinates
version=1
nRows=10
nColumns=46
inDegrees=yes

Units are S.I. units (second, meters, Newtons, ...)
Angles are in degrees.

endheader
time	pelvis_tilt	pelvis_list	pelvis_rotation	pelvis_tx	pelvis_ty	pelvis_tz	bb_angle	bb_tx	bb_ty	bb_tz	hip_flexion_r	hip_adduction_r	hip_rotation_r	knee_angle_r	knee_angle_r_beta	ankle_angle_r	subtalar_angle_r	mtp_angle_r	crank_angle_r	hip_flexion_l	hip_adduction_l	hip_rotation_l	knee_angle_l	knee_angle_l_beta	ankle_angle_l	subtalar_angle_l	mtp_angle_l	crank_angle_l	lumbar_extension	lumbar_bending	lumbar_rotation	arm_flex_r	arm_add_r	arm_rot_r	elbow_flex_r	pro_sup_r	wrist_flex_r	wrist_dev_r	arm_flex_l	arm_add_l	arm_rot_l	elbow_flex_l	pro_sup_l	wrist_flex_l	wrist_dev_l
      7.50500000	    -34.59807852	      2.79507062	     -1.39382485	      0.26591717	      1.03054901	     -0.19898143	      0.00000000	      0.50000000	      0.00000000	      0.25000000	     63.67306951	     -6.77965772	      2.62171099	     77.30535032	      1.34923289	    -31.12852666	    -10.00050479	      0.00000000	      0.00000000	     74.74945826	     -4.54702145	     -0.20580924	     63.47195871	      1.10779466	      8.84855055	     -9.13009652	      0.00000000	      0.00000000	    -39.34800777	     -1.77351621	     -9.64962136	     54.37075273	    -13.18819715	     33.18207606	     71.59951679	     51.50468350	      0.00000000	      0.00000000	     38.55643248	    -40.03888036	     20.17585640	    100.54399646	     51.64351115	      0.00000000	      0.00000000
      7.51000000	    -34.43325977	      2.34929492	     -1.48532323	      0.26614573	      1.02950674	     -0.19912307	      0.00000000	      0.50000000	      0.00000000	      0.25000000	     64.74386871	     -6.29947142	      2.68099156	     79.94293917	      1.39526750	    -30.25184563	    -10.43749998	      0.00000000	      0.00000000	     72.88674133	     -4.72490899	     -0.06965894	     60.62093002	      1.05803482	      8.03091917	     -8.83680276	      0.00000000	      0.00000000	    -39.26656985	     -1.20555845	     -9.32176956	     54.59853530	    -13.22380007	     33.24994567	     71.46713540	     51.48682937	      0.00000000	      0.00000000	     38.08054186	    -39.97649145	     19.99553114	    100.48141840	     51.60919093	      0.00000000	      0.00000000
      7.51500000	    -34.27860006	      1.97743310	     -1.58450629	      0.26681223	      1.02839502	     -0.20007428	      0.00000000	      0.50000000	      0.00000000	      0.25000000	     65.77589646	     -6.01451391	      2.76469733	     82.52805498	      1.44038628	    -28.93463393	    -10.38557601	      0.00000000	      0.00000000	     71.01774531	     -4.78034321	     -0.00037707	     57.89847868	      1.01051908	      6.86132076	     -9.36686021	      0.00000000	      0.00000000	    -39.11966669	     -0.28259067	    -11.11185950	     57.11411589	    -11.13320322	     36.93377735	     67.64727286	     51.40635537	      0.00000000	      0.00000000	     33.25061503	    -40.86160755	     14.30481762	    102.56128488	     51.33299226	      0.00000000	      0.00000000
      7.52000000	    -34.10974730	      1.49250218	     -1.72841700	      0.26733843	      1.02704406	     -0.20039164	      0.00000000	      0.50000000	      0.00000000	      0.25000000	     66.80976937	     -5.55191058	      2.70020306	     85.10870267	      1.48542708	    -27.70233928	    -10.86831690	      0.00000000	      0.00000000	     69.21546175	     -5.08652941	      0.13137151	     55.37044484	      0.96639657	      6.00748729	     -8.93051991	      0.00000000	      0.00000000	    -38.99746814	      0.34331446	    -10.71949043	     57.14773695	    -11.07115270	     36.96624852	     67.58366370	     51.39950643	      0.00000000	      0.00000000	     32.78774468	    -40.80002395	     14.30374898	    102.46745215	     51.31094335	      0.00000000	      0.00000000
      7.52500000	    -33.77451085	      1.18332677	     -1.81857057	      0.26796818	      1.02554105	     -0.20114583	      0.00000000	      0.50000000	      0.00000000	      0.25000000	     67.77952289	     -5.35604852	      2.80398699	     87.79807273	      1.53236545	    -26.03209811	    -10.56589055	      0.00000000	      0.00000000	     67.23993155	     -5.20953816	      0.07121051	     52.96186883	      0.92435899	      5.02187932	     -9.05737551	      0.00000000	      0.00000000	    -39.08825352	      1.38545913	    -12.76218423	     59.40065422	     -8.22747663	     39.92547123	     63.97868599	     51.33563755	      0.00000000	      0.00000000	     27.50198706	    -42.24720176	      8.72830569	    104.74641421	     51.11236879	      0.00000000	      0.00000000
      7.53000000	    -33.63886067	      0.59577006	     -2.01429343	      0.26833938	      1.02352348	     -0.20154810	      0.00000000	      0.50000000	      0.00000000	      0.25000000	     68.96127112	     -4.84081564	      2.65793235	     90.38396412	      1.57749776	    -24.81834417	    -10.95871990	      0.00000000	      0.00000000	     65.55160664	     -5.63417417	      0.25510251	     50.71149248	      0.88508251	      4.34596346	     -8.62955394	      0.00000000	      0.00000000	    -38.92078418	      2.26248434	    -12.31112289	     59.55244411	     -8.04462518	     40.01465070	     64.05235898	     51.35286496	      0.00000000	      0.00000000	     26.95589443	    -42.16978250	      8.70374951	    104.56917700	     51.07753081	      0.00000000	      0.00000000
      7.53500000	    -33.30905923	      0.29838494	     -1.92920780	      0.26886314	      1.02170101	     -0.20287445	      0.00000000	      0.50000000	      0.00000000	      0.25000000	     70.00969673	     -4.92790855	      2.75751198	     93.04644591	      1.62396684	    -22.67767823	     -9.89982414	      0.00000000	      0.00000000	     63.56449581	     -5.50802097	      0.36094310	     48.35896386	      0.84402314	      3.19553864	     -9.04176442	      0.00000000	      0.00000000	    -38.90494985	      3.10627733	    -12.74963751	     60.29575401	     -7.23311517	     41.14592807	     63.10031320	     51.34596718	      0.00000000	      0.00000000	     25.48740551	    -42.18994488	      7.22428627	    104.37483518	     50.89106274	      0.00000000	      0.00000000
      7.54000000	    -33.11256258	     -0.22217697	     -2.08910922	      0.26919557	      1.01956425	     -0.20350297	      0.00000000	      0.50000000	      0.00000000	      0.25000000	     71.21394491	     -4.58515662	      2.64819895	     95.58941406	      1.66835001	    -21.18460441	     -9.96354896	      0.00000000	      0.00000000	     61.79520428	     -5.89429697	      0.43665815	     46.22306111	      0.80674461	      2.54668541	     -8.67487470	      0.00000000	      0.00000000	    -38.80702854	      4.22428490	    -14.60477646	     62.78541027	     -4.54777560	     45.25005829	     58.88105301	     51.31928155	      0.00000000	      0.00000000	     19.68273060	    -43.08768207	      1.29098231	    106.90292540	     50.77403895	      0.00000000	      0.00000000
      7.54500000	    -32.92010306	     -0.68918086	     -2.27656136	      0.26964130	      1.01740701	     -0.20399914	      0.00000000	      0.50000000	      0.00000000	      0.25000000	     72.40230405	     -4.17802650	      2.65303378	     98.07350026	      1.71170549	    -19.41234496	     -9.98834803	      0.00000000	      0.00000000	     59.97276173	     -6.30253189	      0.34239276	     44.05670675	      0.76893459	      1.74845428	     -8.34639245	      0.00000000	      0.00000000	    -38.69046748	      4.99441484	    -14.23720253	     62.80259173	     -4.24642102	     45.29851241	     58.93520233	     51.33945530	      0.00000000	      0.00000000	     19.04605736	    -42.90712504	      1.20231006	    106.65279835	     50.72078826	      0.00000000	      0.00000000
      7.55000000	    -32.68655759	     -1.05386084	     -2.41928236	      0.26988223	      1.01531891	     -0.20498472	      0.00000000	      0.50000000	      0.00000000	      0.25000000	     73.62219636	     -3.99667308	      2.79297395	    100.50719463	      1.75418147	    -17.25106874	     -9.04141562	      0.00000000	      0.00000000	     58.09033569	     -6.50642465	      0.29720538	     41.92351952	      0.73170345	      0.99962165	     -8.47922323	      0.00000000	      0.00000000	    -38.64643144	      5.72565756	    -14.14190196	     62.99080333	     -3.83966667	     45.63295086	     58.90787596	     51.39323159	      0.00000000	      0.00000000	     18.27321459	    -42.78428558	      0.53605430	    106.44680252	     50.61982379	      0.00000000	      0.00000000
